<?xml version="1.0" encoding="UTF-8"?>
<svg id="Layer_2" data-name="Layer 2" xmlns="http://www.w3.org/2000/svg" viewBox="0 0 66.56 66.55">
  <defs>
    <style>
      .cls-1 {
        fill: #fff;
      }

      .cls-2 {
        fill: #ff474d;
      }
    </style>
  </defs>
  <g id="Layer_1-2" data-name="Layer 1">
    <g>
      <path class="cls-2" d="M66.56,33.28c0,18.38-14.9,33.28-33.28,33.28S0,51.66,0,33.28,14.9,0,33.28,0s33.28,14.9,33.28,33.28"/>
      <path class="cls-1" d="M18.19,46.95v4.08c1.38.6,2.88,1,4.42,1.18-2.4-.91-3.69-3.4-4.42-5.26"/>
      <path class="cls-1" d="M27.95,40.78s0,0,0,0c-.52-.12-1.17-.27-1.85-.42-.76-.17-1.56-.34-2.23-.5-1.66-.4-3.57-1.19-3.57-3.79,0-1.78.8-3.05,1.92-3.78-2.28.86-3.8,2.75-3.8,5.05s1.32,4.24,3.45,4.96c1.06.35,2.47.7,4.2,1.04,2.22.44,3.55,1.9,3.55,3.89,0,2.46-.96,4.16-2.71,4.91,3.98-.74,5.47-3.43,5.47-5.97s-1.82-4.78-4.42-5.39"/>
      <path class="cls-1" d="M30.96,36.62l-.37-3.81c-1.05-.4-2.32-.79-3.98-.95,2.01.7,3.25,2.52,4.35,4.76"/>
      <path class="cls-1" d="M48.8,48.41v3.99l5.5-1.64c-.83-.34-2.08-.87-2.49-1.11-.13-.08-.21-.21-.21-.36v-28.05l-5.95,1.65,2.79,1.06c.17.06.27.22.27.4,0,4.02.03,6.65.09,7.84,0,.14-.05.27-.16.35-.11.08-.25.11-.39.07-1.7-.53-3.28-.76-4.81-.72,1.88.18,4.05,1.9,5.27,4.21.03.06.05.13.05.2v10.45l.04,1.67Z"/>
      <path class="cls-1" d="M40.99,52.38c1.72,0,3.13-.38,4.34-1.19-.55.21-1.14.33-1.75.33-2.28,0-4.19-1.06-5.53-3.05-1.18-1.76-1.83-4.15-1.83-6.73,0-3.96,1.37-8.51,5.07-9.61-4.94.99-8.31,4.97-8.31,10.18,0,6.92,4.15,10.07,8.01,10.07"/>
      <path class="cls-1" d="M58.25,44.6s-.38-.29-1.01-.29c-.81,0-1.29.37-1.56.79-.23.36-.27.7-.27.91,0,.98.65,1.69,1.84,1.69.62,0,.98-.29.99-.29.03,0,.12.14.2.24h.07l.02-1.16h-.08c-.12.53-.51,1.1-1.19,1.1-.77,0-1.19-.72-1.19-1.56s.38-1.62,1.19-1.62c.46,0,.79.28,1,.61.07.12.15.33.2.49h.08v-1.14h-.07c-.07.09-.19.22-.22.22"/>
      <path class="cls-1" d="M57.14,48.58c-1.42,0-2.55-1.14-2.55-2.55s1.13-2.55,2.55-2.55,2.54,1.14,2.54,2.55-1.13,2.55-2.54,2.55M57.14,43.26c-1.53,0-2.77,1.24-2.77,2.77s1.24,2.77,2.77,2.77,2.76-1.24,2.76-2.77-1.24-2.77-2.76-2.77"/>
    </g>
  </g>
</svg>